# Blender v2.90.1 OBJ File: 'Template-UV.blend'
# www.blender.org
mtllib a.mtl
o Text
v 0.362000 0.686000 0.000000
v 0.293000 0.686000 0.000000
v 0.000000 0.000000 0.000000
v 0.100000 0.000000 0.000000
v 0.186000 0.201000 0.000000
v 0.476000 0.201000 0.000000
v 0.567000 0.000000 0.000000
v 0.667000 0.000000 0.000000
v 0.326000 0.536000 0.000000
v 0.436000 0.289000 0.000000
v 0.224000 0.289000 0.000000
vt 0.999901 0.000099
vt 0.000099 0.527690
vt 0.000099 0.427127
vt 0.218715 0.475223
vt 0.999901 0.972209
vt 0.578703 0.326564
vt 0.578702 0.635541
vt 0.706957 0.271182
vt 0.706957 0.693839
vt 0.999901 0.145842
vt 0.999901 0.826465
vn 0.0000 -0.0000 1.0000
usemtl None
s off
f 3/1/1 1/2/1 2/3/1
f 3/1/1 9/4/1 1/2/1
f 9/4/1 8/5/1 1/2/1
f 3/1/1 11/6/1 9/4/1
f 10/7/1 8/5/1 9/4/1
f 3/1/1 5/8/1 11/6/1
f 5/8/1 10/7/1 11/6/1
f 5/8/1 6/9/1 10/7/1
f 6/9/1 8/5/1 10/7/1
f 3/1/1 4/10/1 5/8/1
f 7/11/1 8/5/1 6/9/1
