# Blender v2.90.1 OBJ File: 'Template-UV.blend'
# www.blender.org
mtllib b.mtl
o Text_Text.001
v 0.075000 0.000000 0.000000
v 0.173000 0.594000 0.000000
v 0.075000 0.682000 0.000000
v 0.316007 0.680219 0.000000
v 0.381195 0.662054 0.000000
v 0.424460 0.635556 0.000000
v 0.455488 0.601295 0.000000
v 0.279376 0.593599 0.000000
v 0.173000 0.390000 0.000000
v 0.320868 0.586611 0.000000
v 0.474844 0.561624 0.000000
v 0.351627 0.569968 0.000000
v 0.368130 0.551819 0.000000
v 0.482832 0.520466 0.000000
v 0.377980 0.530176 0.000000
v 0.382018 0.505455 0.000000
v 0.481558 0.481954 0.000000
v 0.379924 0.472589 0.000000
v 0.472159 0.444421 0.000000
v 0.370073 0.444172 0.000000
v 0.352508 0.421816 0.000000
v 0.453432 0.413365 0.000000
v 0.326989 0.405305 0.000000
v 0.432040 0.392055 0.000000
v 0.278794 0.391542 0.000000
v 0.173000 0.302000 0.000000
v 0.404553 0.373870 0.000000
v 0.378726 0.360911 0.000000
v 0.415883 0.350793 0.000000
v 0.457995 0.331757 0.000000
v 0.492325 0.305896 0.000000
v 0.309829 0.301600 0.000000
v 0.173000 0.088000 0.000000
v 0.349101 0.296587 0.000000
v 0.518312 0.273862 0.000000
v 0.384686 0.284808 0.000000
v 0.411476 0.267433 0.000000
v 0.538682 0.226422 0.000000
v 0.429788 0.245216 0.000000
v 0.439918 0.218785 0.000000
v 0.442046 0.189802 0.000000
v 0.542954 0.170877 0.000000
v 0.437538 0.163341 0.000000
v 0.534619 0.128204 0.000000
v 0.426181 0.139014 0.000000
v 0.400595 0.112666 0.000000
v 0.514207 0.086984 0.000000
v 0.358207 0.094734 0.000000
v 0.316815 0.088515 0.000000
v 0.480665 0.050592 0.000000
v 0.432765 0.021939 0.000000
v 0.385708 0.007648 0.000000
v 0.339902 0.000873 0.000000
vt 0.684417 0.999917
vt 0.540599 0.130180
vt 0.684417 0.000083
vt 0.328521 0.003982
vt 0.232130 0.031423
vt 0.168297 0.071032
vt 0.122657 0.122032
vt 0.383042 0.131765
vt 0.541027 0.430341
vt 0.321797 0.142479
vt 0.094384 0.180953
vt 0.276528 0.167380
vt 0.252331 0.194376
vt 0.082981 0.241991
vt 0.237999 0.226476
vt 0.232295 0.263056
vt 0.085308 0.299039
vt 0.235755 0.311580
vt 0.099724 0.354535
vt 0.250631 0.353401
vt 0.276823 0.386128
vt 0.127915 0.400230
vt 0.314644 0.410055
vt 0.159897 0.431394
vt 0.385736 0.429483
vt 0.541107 0.558201
vt 0.200567 0.457520
vt 0.238688 0.476007
vt 0.184312 0.491624
vt 0.122786 0.520492
vt 0.072837 0.559267
vt 0.329227 0.562697
vt 0.540069 0.870258
vt 0.274137 0.570313
vt 0.035382 0.605321
vt 0.223965 0.587602
vt 0.186242 0.612709
vt 0.006215 0.673155
vt 0.160505 0.644705
vt 0.146490 0.682619
vt 0.143931 0.724126
vt 0.000083 0.752121
vt 0.150787 0.762033
vt 0.011991 0.813075
vt 0.167437 0.796888
vt 0.204611 0.834685
vt 0.041221 0.872108
vt 0.266057 0.860404
vt 0.326026 0.869250
vt 0.090314 0.925440
vt 0.160444 0.967453
vt 0.229353 0.988428
vt 0.296433 0.998393
vn -0.0000 -0.0000 1.0000
usemtl None.001
s 1
f 1/1/1 2/2/1 3/3/1
f 2/2/1 4/4/1 3/3/1
f 2/2/1 5/5/1 4/4/1
f 2/2/1 6/6/1 5/5/1
f 2/2/1 7/7/1 6/6/1
f 2/2/1 8/8/1 7/7/1
f 1/1/1 9/9/1 2/2/1
f 10/10/1 7/7/1 8/8/1
f 10/10/1 11/11/1 7/7/1
f 12/12/1 11/11/1 10/10/1
f 13/13/1 11/11/1 12/12/1
f 13/13/1 14/14/1 11/11/1
f 15/15/1 14/14/1 13/13/1
f 16/16/1 14/14/1 15/15/1
f 16/16/1 17/17/1 14/14/1
f 18/18/1 17/17/1 16/16/1
f 18/18/1 19/19/1 17/17/1
f 20/20/1 19/19/1 18/18/1
f 21/21/1 19/19/1 20/20/1
f 21/21/1 22/22/1 19/19/1
f 23/23/1 22/22/1 21/21/1
f 23/23/1 24/24/1 22/22/1
f 25/25/1 24/24/1 23/23/1
f 1/1/1 26/26/1 9/9/1
f 26/26/1 25/25/1 9/9/1
f 26/26/1 24/24/1 25/25/1
f 26/26/1 27/27/1 24/24/1
f 26/26/1 28/28/1 27/27/1
f 26/26/1 29/29/1 28/28/1
f 26/26/1 30/30/1 29/29/1
f 26/26/1 31/31/1 30/30/1
f 26/26/1 32/32/1 31/31/1
f 1/1/1 33/33/1 26/26/1
f 34/34/1 31/31/1 32/32/1
f 34/34/1 35/35/1 31/31/1
f 36/36/1 35/35/1 34/34/1
f 37/37/1 35/35/1 36/36/1
f 37/37/1 38/38/1 35/35/1
f 39/39/1 38/38/1 37/37/1
f 40/40/1 38/38/1 39/39/1
f 41/41/1 38/38/1 40/40/1
f 41/41/1 42/42/1 38/38/1
f 43/43/1 42/42/1 41/41/1
f 43/43/1 44/44/1 42/42/1
f 45/45/1 44/44/1 43/43/1
f 46/46/1 44/44/1 45/45/1
f 46/46/1 47/47/1 44/44/1
f 48/48/1 47/47/1 46/46/1
f 49/49/1 47/47/1 48/48/1
f 1/1/1 49/49/1 33/33/1
f 1/1/1 47/47/1 49/49/1
f 1/1/1 50/50/1 47/47/1
f 1/1/1 51/51/1 50/50/1
f 1/1/1 52/52/1 51/51/1
f 1/1/1 53/53/1 52/52/1
