# Blender v2.90.1 OBJ File: 'Template-UV.blend'
# www.blender.org
mtllib d.mtl
o Text_Text.004
v 0.076000 0.000000 0.000000
v 0.174000 0.594000 0.000000
v 0.076000 0.682000 0.000000
v 0.386510 0.680411 0.000000
v 0.481017 0.661101 0.000000
v 0.566720 0.617483 0.000000
v 0.359727 0.592959 0.000000
v 0.631207 0.556312 0.000000
v 0.174000 0.088000 0.000000
v 0.431955 0.580114 0.000000
v 0.497416 0.550472 0.000000
v 0.546766 0.507624 0.000000
v 0.675203 0.482786 0.000000
v 0.580579 0.454011 0.000000
v 0.699264 0.402326 0.000000
v 0.599230 0.392087 0.000000
v 0.703891 0.318287 0.000000
v 0.601759 0.304484 0.000000
v 0.687256 0.233981 0.000000
v 0.574919 0.222498 0.000000
v 0.649251 0.155619 0.000000
v 0.538665 0.168700 0.000000
v 0.483622 0.123966 0.000000
v 0.591469 0.088745 0.000000
v 0.393538 0.091355 0.000000
v 0.515426 0.037700 0.000000
v 0.407849 0.003248 0.000000
vt 0.919841 0.999904
vt 0.776363 0.129221
vt 0.919841 0.000096
vt 0.465119 0.003665
vt 0.326941 0.032317
vt 0.201742 0.096501
vt 0.504526 0.131504
vt 0.107632 0.186378
vt 0.776195 0.870799
vt 0.394806 0.151563
vt 0.300456 0.194513
vt 0.229167 0.256639
vt 0.042975 0.292647
vt 0.180196 0.334577
vt 0.007310 0.409776
vt 0.153125 0.424882
vt 0.000096 0.532629
vt 0.149425 0.553095
vt 0.024094 0.656176
vt 0.188667 0.673304
vt 0.079604 0.771202
vt 0.241761 0.752191
vt 0.322375 0.817842
vt 0.164248 0.869361
vt 0.454348 0.865707
vt 0.275683 0.944258
vt 0.433358 0.994856
vn 0.0000 -0.0000 1.0000
usemtl SAMPLE2
s 1
f 1/1/1 2/2/1 3/3/1
f 2/2/1 4/4/1 3/3/1
f 2/2/1 5/5/1 4/4/1
f 2/2/1 6/6/1 5/5/1
f 2/2/1 7/7/1 6/6/1
f 7/7/1 8/8/1 6/6/1
f 1/1/1 9/9/1 2/2/1
f 10/10/1 8/8/1 7/7/1
f 11/11/1 8/8/1 10/10/1
f 12/12/1 8/8/1 11/11/1
f 12/12/1 13/13/1 8/8/1
f 14/14/1 13/13/1 12/12/1
f 14/14/1 15/15/1 13/13/1
f 16/16/1 15/15/1 14/14/1
f 16/16/1 17/17/1 15/15/1
f 18/18/1 17/17/1 16/16/1
f 18/18/1 19/19/1 17/17/1
f 20/20/1 19/19/1 18/18/1
f 20/20/1 21/21/1 19/19/1
f 22/22/1 21/21/1 20/20/1
f 23/23/1 21/21/1 22/22/1
f 23/23/1 24/24/1 21/21/1
f 25/25/1 24/24/1 23/23/1
f 1/1/1 25/25/1 9/9/1
f 1/1/1 24/24/1 25/25/1
f 1/1/1 26/26/1 24/24/1
f 1/1/1 27/27/1 26/26/1
