# Blender v2.90.1 OBJ File: 'Template-UV.blend'
# www.blender.org
mtllib g.mtl
o Text_Text.007
v 0.340319 0.684774 0.000000
v 0.508408 0.683730 0.000000
v 0.428711 0.691251 0.000000
v 0.249058 0.655211 0.000000
v 0.658340 0.635530 0.000000
v 0.171342 0.605187 0.000000
v 0.389847 0.602515 0.000000
v 0.516232 0.590208 0.000000
v 0.657717 0.537785 0.000000
v 0.294748 0.574606 0.000000
v 0.110256 0.537648 0.000000
v 0.238822 0.537693 0.000000
v 0.194694 0.487863 0.000000
v 0.060617 0.433459 0.000000
v 0.164675 0.427351 0.000000
v 0.151029 0.358575 0.000000
v 0.050001 0.312152 0.000000
v 0.158813 0.267160 0.000000
v 0.444000 0.248000 0.000000
v 0.673000 0.336000 0.000000
v 0.444000 0.336000 0.000000
v 0.575000 0.248000 0.000000
v 0.672021 0.043884 0.000000
v 0.068446 0.219552 0.000000
v 0.574851 0.107226 0.000000
v 0.195115 0.190958 0.000000
v 0.109062 0.139295 0.000000
v 0.240322 0.142163 0.000000
v 0.298584 0.106401 0.000000
v 0.169182 0.073714 0.000000
v 0.368086 0.085425 0.000000
v 0.465274 0.081874 0.000000
v 0.246069 0.025414 0.000000
v 0.336940 -0.003012 -0.000000
v 0.524137 -0.000811 -0.000000
v 0.427579 -0.009280 -0.000000
vt 0.440492 0.996832
vt 0.680340 0.983606
vt 0.567110 0.999906
vt 0.308168 0.961008
vt 0.890978 0.904341
vt 0.193747 0.895032
vt 0.505440 0.875962
vt 0.684976 0.849572
vt 0.883265 0.764868
vt 0.367754 0.842767
vt 0.101842 0.802896
vt 0.285352 0.793984
vt 0.218887 0.725941
vt 0.023716 0.657649
vt 0.171815 0.641666
vt 0.147536 0.544452
vt 0.000094 0.485245
vt 0.152264 0.413429
vt 0.557981 0.366166
vt 0.890978 0.475781
vt 0.564125 0.491769
vt 0.744959 0.357020
vt 0.869187 0.058910
vt 0.019956 0.351786
vt 0.734918 0.156103
vt 0.198759 0.302129
vt 0.072326 0.234396
vt 0.259878 0.229326
vt 0.340541 0.174213
vt 0.153559 0.136593
vt 0.438279 0.139421
vt 0.576748 0.127568
vt 0.259927 0.062286
vt 0.387644 0.015369
vt 0.654988 0.005441
vt 0.516577 0.000094
vn 0.0000 -0.0000 1.0000
usemtl None.004
s 1
f 1/1/1 2/2/1 3/3/1
f 4/4/1 2/2/1 1/1/1
f 4/4/1 5/5/1 2/2/1
f 6/6/1 5/5/1 4/4/1
f 6/6/1 7/7/1 5/5/1
f 7/7/1 8/8/1 5/5/1
f 8/8/1 9/9/1 5/5/1
f 6/6/1 10/10/1 7/7/1
f 11/11/1 10/10/1 6/6/1
f 11/11/1 12/12/1 10/10/1
f 11/11/1 13/13/1 12/12/1
f 14/14/1 13/13/1 11/11/1
f 14/14/1 15/15/1 13/13/1
f 14/14/1 16/16/1 15/15/1
f 17/17/1 16/16/1 14/14/1
f 17/17/1 18/18/1 16/16/1
f 19/19/1 20/20/1 21/21/1
f 19/19/1 22/22/1 20/20/1
f 22/22/1 23/23/1 20/20/1
f 24/24/1 18/18/1 17/17/1
f 25/25/1 23/23/1 22/22/1
f 24/24/1 26/26/1 18/18/1
f 27/27/1 26/26/1 24/24/1
f 27/27/1 28/28/1 26/26/1
f 27/27/1 29/29/1 28/28/1
f 30/30/1 29/29/1 27/27/1
f 30/30/1 31/31/1 29/29/1
f 32/32/1 23/23/1 25/25/1
f 30/30/1 32/32/1 31/31/1
f 30/30/1 23/23/1 32/32/1
f 33/33/1 23/23/1 30/30/1
f 34/34/1 23/23/1 33/33/1
f 34/34/1 35/35/1 23/23/1
f 34/34/1 36/36/1 35/35/1
