# Blender v2.90.1 OBJ File: 'Template-UV.blend'
# www.blender.org
mtllib h.mtl
o Text_Text.008
v 0.075000 0.000000 0.000000
v 0.173000 0.682000 0.000000
v 0.075000 0.682000 0.000000
v 0.173000 0.385000 0.000000
v 0.555000 0.385000 0.000000
v 0.653000 0.682000 0.000000
v 0.555000 0.682000 0.000000
v 0.653000 0.000000 0.000000
v 0.173000 0.297000 0.000000
v 0.555000 0.297000 0.000000
v 0.173000 0.000000 0.000000
v 0.555000 0.000000 0.000000
vt 0.847440 0.999906
vt 0.703772 0.000092
vt 0.847440 0.000092
vt 0.703772 0.435496
vt 0.143761 0.435497
vt 0.000093 0.000094
vt 0.143761 0.000094
vt 0.000092 0.999908
vt 0.703772 0.564504
vt 0.143761 0.564505
vt 0.703773 0.999906
vt 0.143761 0.999908
vn 0.0000 -0.0000 1.0000
usemtl SAMPLE2
s 1
f 1/1/1 2/2/1 3/3/1
f 1/1/1 4/4/1 2/2/1
f 5/5/1 6/6/1 7/7/1
f 5/5/1 8/8/1 6/6/1
f 1/1/1 9/9/1 4/4/1
f 9/9/1 5/5/1 4/4/1
f 9/9/1 10/10/1 5/5/1
f 10/10/1 8/8/1 5/5/1
f 1/1/1 11/11/1 9/9/1
f 12/12/1 8/8/1 10/10/1
