# Blender v2.90.1 OBJ File: 'Template-UV.blend'
# www.blender.org
mtllib r.mtl
o Text_Text.015
v 0.077000 0.000000 0.000000
v 0.175000 0.598000 0.000000
v 0.077000 0.682000 0.000000
v 0.306162 0.679156 0.000000
v 0.381278 0.652772 0.000000
v 0.431838 0.613584 0.000000
v 0.277216 0.596382 0.000000
v 0.175000 0.384000 0.000000
v 0.462431 0.559135 0.000000
v 0.336271 0.575262 0.000000
v 0.366942 0.533724 0.000000
v 0.474442 0.486504 0.000000
v 0.371520 0.471668 0.000000
v 0.357756 0.434363 0.000000
v 0.453764 0.402299 0.000000
v 0.334079 0.407958 0.000000
v 0.280074 0.386119 0.000000
v 0.175000 0.296000 0.000000
v 0.401731 0.345557 0.000000
v 0.362352 0.324344 0.000000
v 0.245796 0.294347 0.000000
v 0.175000 0.000000 0.000000
v 0.444792 0.240065 0.000000
v 0.296682 0.267708 0.000000
v 0.359046 0.196953 0.000000
v 0.539611 0.089709 0.000000
v 0.487000 0.000000 0.000000
v 0.604000 0.000000 0.000000
vt 0.772674 0.999912
vt 0.629005 0.123233
vt 0.772674 0.000088
vt 0.436720 0.004257
vt 0.326600 0.042935
vt 0.252478 0.100385
vt 0.479156 0.125604
vt 0.629004 0.436958
vt 0.207628 0.180208
vt 0.392581 0.156566
vt 0.347616 0.217461
vt 0.190020 0.286685
vt 0.340905 0.308435
vt 0.361083 0.363125
vt 0.220334 0.410131
vt 0.395793 0.401835
vt 0.474965 0.433851
vt 0.629004 0.565967
vt 0.296615 0.493316
vt 0.354345 0.524414
vt 0.525217 0.568390
vt 0.629003 0.999912
vt 0.233488 0.647967
vt 0.450618 0.607443
vt 0.359192 0.711170
vt 0.094483 0.868390
vt 0.171611 0.999904
vt 0.000088 0.999904
vn -0.0000 -0.0000 1.0000
usemtl SAMPLE2
s 1
f 1/1/1 2/2/1 3/3/1
f 2/2/1 4/4/1 3/3/1
f 2/2/1 5/5/1 4/4/1
f 2/2/1 6/6/1 5/5/1
f 2/2/1 7/7/1 6/6/1
f 1/1/1 8/8/1 2/2/1
f 7/7/1 9/9/1 6/6/1
f 10/10/1 9/9/1 7/7/1
f 11/11/1 9/9/1 10/10/1
f 11/11/1 12/12/1 9/9/1
f 13/13/1 12/12/1 11/11/1
f 14/14/1 12/12/1 13/13/1
f 14/14/1 15/15/1 12/12/1
f 16/16/1 15/15/1 14/14/1
f 17/17/1 15/15/1 16/16/1
f 1/1/1 18/18/1 8/8/1
f 18/18/1 17/17/1 8/8/1
f 18/18/1 15/15/1 17/17/1
f 18/18/1 19/19/1 15/15/1
f 18/18/1 20/20/1 19/19/1
f 18/18/1 21/21/1 20/20/1
f 1/1/1 22/22/1 18/18/1
f 21/21/1 23/23/1 20/20/1
f 24/24/1 23/23/1 21/21/1
f 25/25/1 23/23/1 24/24/1
f 25/25/1 26/26/1 23/23/1
f 27/27/1 26/26/1 25/25/1
f 27/27/1 28/28/1 26/26/1
