# Blender v2.90.1 OBJ File: 'Template-UV.blend'
# www.blender.org
mtllib s.mtl
o Text_Text.016
v 0.201502 0.688009 0.000000
v 0.318099 0.681351 0.000000
v 0.264513 0.690868 0.000000
v 0.148896 0.673812 0.000000
v 0.368504 0.661381 0.000000
v 0.105439 0.649360 0.000000
v 0.399000 0.643000 0.000000
v 0.269717 0.601099 0.000000
v 0.335743 0.579917 0.000000
v 0.398942 0.532568 0.000000
v 0.072148 0.615570 0.000000
v 0.214566 0.602086 0.000000
v 0.045722 0.562004 0.000000
v 0.164937 0.584184 0.000000
v 0.141536 0.559690 0.000000
v 0.130726 0.531115 0.000000
v 0.041204 0.481624 0.000000
v 0.140919 0.480919 0.000000
v 0.188309 0.433897 0.000000
v 0.069725 0.414567 0.000000
v 0.307216 0.364080 0.000000
v 0.132335 0.354839 0.000000
v 0.369651 0.315614 0.000000
v 0.275234 0.264427 0.000000
v 0.404148 0.267880 0.000000
v 0.420196 0.225891 0.000000
v 0.324944 0.210089 0.000000
v 0.426097 0.153302 0.000000
v 0.335215 0.157719 0.000000
v 0.044217 0.052751 0.000000
v 0.077054 0.140595 0.000000
v 0.044000 0.178000 0.000000
v 0.320593 0.120384 0.000000
v 0.406976 0.090804 0.000000
v 0.135514 0.099414 0.000000
v 0.280774 0.088832 0.000000
v 0.182786 0.083309 0.000000
v 0.226248 0.078438 0.000000
v 0.380294 0.051645 0.000000
v 0.344069 0.021043 0.000000
v 0.117506 0.011037 0.000000
v 0.299756 0.000377 0.000000
v 0.189483 -0.006815 -0.000000
v 0.252331 -0.008620 -0.000000
vt 0.315782 0.003527
vt 0.149167 0.014218
vt 0.225675 0.000074
vt 0.391127 0.023294
vt 0.077310 0.043273
vt 0.453498 0.057812
vt 0.033900 0.069856
vt 0.219138 0.128456
vt 0.124963 0.159401
vt 0.035093 0.227724
vt 0.501429 0.105782
vt 0.297969 0.126491
vt 0.539745 0.182093
vt 0.369094 0.151583
vt 0.402794 0.186364
vt 0.418535 0.227106
vt 0.547012 0.296958
vt 0.404468 0.298968
vt 0.337192 0.366666
vt 0.506913 0.393108
vt 0.167906 0.467671
vt 0.418007 0.479124
vt 0.079137 0.537585
vt 0.214629 0.609813
vt 0.030300 0.606172
vt 0.007780 0.666360
vt 0.144110 0.687993
vt 0.000074 0.770192
vt 0.129954 0.762964
vt 0.547012 0.910099
vt 0.499186 0.784849
vt 0.546063 0.731044
vt 0.151232 0.816191
vt 0.028037 0.859347
vt 0.416027 0.844308
vt 0.208474 0.860897
vt 0.348610 0.867807
vt 0.286527 0.875207
vt 0.066575 0.915059
vt 0.118669 0.958443
vt 0.442659 0.970469
vt 0.182226 0.987541
vt 0.339942 0.996714
vt 0.250114 0.999926
vn 0.0000 -0.0000 1.0000
usemtl SAMPLE2
s 1
f 1/1/1 2/2/1 3/3/1
f 4/4/1 2/2/1 1/1/1
f 4/4/1 5/5/1 2/2/1
f 6/6/1 5/5/1 4/4/1
f 6/6/1 7/7/1 5/5/1
f 6/6/1 8/8/1 7/7/1
f 8/8/1 9/9/1 7/7/1
f 9/9/1 10/10/1 7/7/1
f 11/11/1 8/8/1 6/6/1
f 12/12/1 8/8/1 11/11/1
f 13/13/1 12/12/1 11/11/1
f 13/13/1 14/14/1 12/12/1
f 13/13/1 15/15/1 14/14/1
f 13/13/1 16/16/1 15/15/1
f 17/17/1 16/16/1 13/13/1
f 17/17/1 18/18/1 16/16/1
f 17/17/1 19/19/1 18/18/1
f 20/20/1 19/19/1 17/17/1
f 20/20/1 21/21/1 19/19/1
f 22/22/1 21/21/1 20/20/1
f 22/22/1 23/23/1 21/21/1
f 24/24/1 23/23/1 22/22/1
f 24/24/1 25/25/1 23/23/1
f 24/24/1 26/26/1 25/25/1
f 27/27/1 26/26/1 24/24/1
f 27/27/1 28/28/1 26/26/1
f 29/29/1 28/28/1 27/27/1
f 30/30/1 31/31/1 32/32/1
f 33/33/1 28/28/1 29/29/1
f 33/33/1 34/34/1 28/28/1
f 30/30/1 35/35/1 31/31/1
f 36/36/1 34/34/1 33/33/1
f 30/30/1 37/37/1 35/35/1
f 38/38/1 34/34/1 36/36/1
f 30/30/1 38/38/1 37/37/1
f 38/38/1 39/39/1 34/34/1
f 30/30/1 39/39/1 38/38/1
f 30/30/1 40/40/1 39/39/1
f 41/41/1 40/40/1 30/30/1
f 41/41/1 42/42/1 40/40/1
f 43/43/1 42/42/1 41/41/1
f 43/43/1 44/44/1 42/42/1
