# Blender v2.90.1 OBJ File: 'Template-UV.blend'
# www.blender.org
mtllib v.mtl
o Text_Text.019
v 0.295000 -0.006000 -0.000000
v 0.098000 0.682000 0.000000
v 0.000000 0.682000 0.000000
v 0.303000 0.203000 0.000000
v 0.604000 0.682000 0.000000
v 0.507000 0.682000 0.000000
v 0.315000 -0.006000 -0.000000
vt 0.000094 0.449138
vt 0.999906 0.735421
vt 0.999906 0.877836
vt 0.303816 0.437512
vt 0.999906 0.000094
vt 0.999906 0.141055
vt 0.000094 0.420073
vn 0.0000 -0.0000 1.0000
usemtl SAMPLE2
s 1
f 1/1/1 2/2/1 3/3/1
f 1/1/1 4/4/1 2/2/1
f 4/4/1 5/5/1 6/6/1
f 4/4/1 7/7/1 5/5/1
f 1/1/1 7/7/1 4/4/1
