# Blender v2.90.1 OBJ File: 'Template.blend'
# www.blender.org
mtllib v.mtl
o Text_Text.019
v 0.604000 0.682000 0.000000
v 0.507000 0.682000 0.000000
v 0.303000 0.203000 0.000000
v 0.098000 0.682000 0.000000
v 0.000000 0.682000 0.000000
v 0.295000 -0.006000 -0.000000
v 0.315000 -0.006000 -0.000000
vt 0.833333 0.000000
vt 0.500000 0.000000
vt 0.666667 0.000000
vt 0.333333 0.000000
vt 0.000000 0.000000
vt 0.166667 0.000000
vt 1.000000 0.000000
vn 0.0000 -0.0000 1.0000
usemtl None
s off
f 6/1/1 4/2/1 5/3/1
f 6/1/1 3/4/1 4/2/1
f 3/4/1 1/5/1 2/6/1
f 3/4/1 7/7/1 1/5/1
f 6/1/1 7/7/1 3/4/1
