# Blender v2.90.1 OBJ File: 'Template-UV.blend'
# www.blender.org
mtllib w.mtl
o Text_Text.020
v 0.276000 -0.006000 -0.000000
v 0.098000 0.682000 0.000000
v 0.000000 0.682000 0.000000
v 0.286000 0.212000 0.000000
v 0.568000 0.682000 0.000000
v 0.475000 0.682000 0.000000
v 0.521000 0.552000 0.000000
v 0.758000 0.212000 0.000000
v 1.041000 0.682000 0.000000
v 0.944000 0.682000 0.000000
v 0.764000 -0.006000 -0.000000
v 0.295000 -0.006000 -0.000000
v 0.745000 -0.006000 -0.000000
vt 0.000107 0.734838
vt 0.660887 0.905797
vt 0.660887 0.999919
vt 0.209482 0.725234
vt 0.660893 0.454390
vt 0.660892 0.543711
vt 0.536030 0.499532
vt 0.209466 0.271897
vt 0.660893 0.000081
vt 0.660893 0.093248
vt 0.000081 0.266134
vt 0.000107 0.716590
vt 0.000081 0.284383
vn 0.0000 -0.0000 1.0000
usemtl SAMPLE2
s 1
f 1/1/1 2/2/1 3/3/1
f 1/1/1 4/4/1 2/2/1
f 4/4/1 5/5/1 6/6/1
f 4/4/1 7/7/1 5/5/1
f 7/7/1 8/8/1 5/5/1
f 8/8/1 9/9/1 10/10/1
f 8/8/1 11/11/1 9/9/1
f 4/4/1 12/12/1 7/7/1
f 13/13/1 8/8/1 7/7/1
f 1/1/1 12/12/1 4/4/1
f 13/13/1 11/11/1 8/8/1
