# Blender v2.90.1 OBJ File: 'Template-UV.blend'
# www.blender.org
mtllib x.mtl
o Text_Text.021
v 0.296000 0.353000 0.000000
v 0.142000 0.682000 0.000000
v 0.023000 0.682000 0.000000
v 0.356000 0.422000 0.000000
v 0.687000 0.682000 0.000000
v 0.569000 0.682000 0.000000
v 0.415000 0.353000 0.000000
v 0.002000 0.000000 0.000000
v 0.356000 0.282000 0.000000
v 0.706000 0.000000 0.000000
v 0.121000 0.000000 0.000000
v 0.588000 0.000000 0.000000
vt 0.467346 0.417642
vt 0.000099 0.198932
vt 0.000098 0.029928
vt 0.369352 0.502854
vt 0.000101 0.972943
vt 0.000100 0.805359
vt 0.467347 0.586646
vt 0.968680 0.000098
vt 0.568175 0.502859
vt 0.968650 0.999902
vt 0.968680 0.169106
vt 0.968650 0.832327
vn 0.0000 -0.0000 1.0000
usemtl SAMPLE2
s 1
f 1/1/1 2/2/1 3/3/1
f 1/1/1 4/4/1 2/2/1
f 4/4/1 5/5/1 6/6/1
f 4/4/1 7/7/1 5/5/1
f 1/1/1 7/7/1 4/4/1
f 8/8/1 7/7/1 1/1/1
f 8/8/1 9/9/1 7/7/1
f 9/9/1 10/10/1 7/7/1
f 8/8/1 11/11/1 9/9/1
f 12/12/1 10/10/1 9/9/1
