# Blender v2.90.1 OBJ File: 'Template.blend'
# www.blender.org
mtllib o.mtl
o Text_Text.013
v 0.045000 0.318027 0.000000
v 0.062173 0.228986 0.000000
v 0.100888 0.148373 0.000000
v 0.159419 0.080291 0.000000
v 0.235998 0.028759 0.000000
v 0.328925 -0.002316 -0.000000
v 0.437655 -0.009003 -0.000000
v 0.541306 0.010554 0.000000
v 0.627581 0.052487 0.000000
v 0.695735 0.112875 0.000000
v 0.744433 0.187715 0.000000
v 0.777007 0.295038 0.000000
v 0.772141 0.410907 0.000000
v 0.734344 0.517540 0.000000
v 0.662796 0.603341 0.000000
v 0.585655 0.654065 0.000000
v 0.491942 0.684475 0.000000
v 0.383169 0.690957 0.000000
v 0.283033 0.671961 0.000000
v 0.178284 0.618526 0.000000
v 0.089199 0.516923 0.000000
v 0.050946 0.410481 0.000000
v 0.146016 0.322362 0.000000
v 0.150616 0.395487 0.000000
v 0.172506 0.460568 0.000000
v 0.231726 0.540346 0.000000
v 0.354879 0.598621 0.000000
v 0.484549 0.593512 0.000000
v 0.591135 0.540339 0.000000
v 0.650468 0.460573 0.000000
v 0.672381 0.395497 0.000000
v 0.676984 0.322355 0.000000
v 0.652471 0.220878 0.000000
v 0.564116 0.121805 0.000000
v 0.466627 0.085537 0.000000
v 0.373319 0.081815 0.000000
v 0.258671 0.121794 0.000000
v 0.170502 0.220897 0.000000
vt 0.405338 0.000000
vt 0.363004 0.000000
vt 0.384390 0.000000
vt 0.342041 0.000000
vt 0.431570 0.000000
vt 0.321061 0.000000
vt 0.615346 0.000000
vt 0.652864 0.000000
vt 0.294837 0.000000
vt 0.463109 0.000000
vt 0.689603 0.000000
vt 0.573566 0.000000
vt 0.721024 0.000000
vt 0.542133 0.000000
vt 0.268487 0.000000
vt 0.489444 0.000000
vt 0.742017 0.000000
vt 0.521138 0.000000
vt 0.242005 0.000000
vt 0.005265 0.000000
vt 0.763263 0.000000
vt 0.757476 0.000000
vt 0.973580 0.000000
vt 0.794845 0.000000
vt 0.026345 0.000000
vt 0.215724 0.000000
vt 0.047419 0.000000
vt 0.836670 0.000000
vt 0.931734 0.000000
vt 0.194679 0.000000
vt 0.068461 0.000000
vt 0.868327 0.000000
vt 0.894980 0.000000
vt 0.173685 0.000000
vt 0.089454 0.000000
vt 0.152734 0.000000
vt 0.110410 0.000000
vt 0.131703 0.000000
vn -0.0000 -0.0000 1.0000
usemtl None
s off
f 19/1/1 17/2/1 18/3/1
f 19/1/1 16/4/1 17/2/1
f 20/5/1 16/4/1 19/1/1
f 20/5/1 15/6/1 16/4/1
f 27/7/1 15/6/1 20/5/1
f 28/8/1 15/6/1 27/7/1
f 28/8/1 14/9/1 15/6/1
f 21/10/1 27/7/1 20/5/1
f 29/11/1 14/9/1 28/8/1
f 21/10/1 26/12/1 27/7/1
f 30/13/1 14/9/1 29/11/1
f 21/10/1 25/14/1 26/12/1
f 30/13/1 13/15/1 14/9/1
f 22/16/1 25/14/1 21/10/1
f 31/17/1 13/15/1 30/13/1
f 22/16/1 24/18/1 25/14/1
f 31/17/1 12/19/1 13/15/1
f 1/20/1 24/18/1 22/16/1
f 32/21/1 12/19/1 31/17/1
f 1/20/1 23/22/1 24/18/1
f 1/20/1 38/23/1 23/22/1
f 33/24/1 12/19/1 32/21/1
f 2/25/1 38/23/1 1/20/1
f 33/24/1 11/26/1 12/19/1
f 3/27/1 38/23/1 2/25/1
f 34/28/1 11/26/1 33/24/1
f 3/27/1 37/29/1 38/23/1
f 34/28/1 10/30/1 11/26/1
f 4/31/1 37/29/1 3/27/1
f 35/32/1 10/30/1 34/28/1
f 4/31/1 36/33/1 37/29/1
f 35/32/1 9/34/1 10/30/1
f 36/33/1 9/34/1 35/32/1
f 4/31/1 9/34/1 36/33/1
f 5/35/1 9/34/1 4/31/1
f 5/35/1 8/36/1 9/34/1
f 6/37/1 8/36/1 5/35/1
f 6/37/1 7/38/1 8/36/1
